<svg width="512" height="512" viewBox="0 0 512 512" fill="none" xmlns="http://www.w3.org/2000/svg">
<path d="M451.924 185.847C437.424 167.056 402.529 149.335 381.59 147.194C360.649 145.045 317.695 135.915 291.924 123.033C266.153 110.143 204.401 75.2419 172.728 67.1909C141.047 59.1399 130.307 65.0409 106.685 77.9309C83.063 90.8129 62.654 79.0019 57.823 107.462C49.772 157.927 66.581 155.785 71.784 157.396C76.995 158.999 97.024 146.656 98.634 138.604C100.244 130.545 128.158 128.935 131.386 123.565C134.607 118.195 136.756 115.514 122.796 115.514C108.835 115.514 111.517 104.774 133.528 98.8719C155.548 92.9619 159.299 119.805 160.378 121.954C161.449 124.103 186.149 198.198 155.548 204.107C124.938 210.009 126.017 200.878 124.405 187.458C122.796 174.037 161.988 165.985 144.268 154.175C126.547 142.356 97.555 159.537 88.433 163.297C79.303 167.057 77.693 164.375 75.004 168.667C72.322 172.966 84.133 174.576 71.783 200.879C67.104 210.853 67.674 217.506 70.18 221.919C61.521 226.773 38.97 241.212 48.16 255.65C59.431 273.371 69.633 267.462 94.333 317.933C119.034 368.398 80.912 364.646 182.927 389.878C284.942 415.11 295.143 444.109 353.667 448.401C379.438 450.01 393.399 427.46 390.179 417.259C390.148 417.167 390.087 417.076 390.058 416.986C392.845 409.505 397.312 393.303 388.912 382.441C384.719 377.428 389.412 395.186 382.889 403.367C382.889 403.367 384.598 377.763 377.754 368.701C375.338 364.425 373.926 389.27 364.348 403.055C363.278 402.607 362.168 402.136 361.028 401.643C363.975 393.424 368.382 378.408 364.735 370.349C362.942 364.758 355.37 388.768 345.45 394.571C344.995 394.351 344.524 394.131 344.061 393.903C348.284 383.557 355.12 364.174 351.633 354.444C350.153 347.897 339.541 376.494 327.844 385.555C327.045 385.122 326.233 384.674 325.428 384.226C329.09 379.57 336.852 367.896 332.606 357.11C331.573 351.36 329.522 370.608 315.493 377.808C315.493 377.808 327.366 363.369 322.163 355.006C322.163 355.006 318.729 365.199 305.794 371.306C305.384 371.503 305.021 371.702 304.692 371.899C304.131 371.542 303.569 371.192 302.999 370.828C305.491 367.509 310.261 359.199 306.288 348.049C304.534 340.485 304.897 357.134 294.325 365.124C293.376 364.485 292.427 363.84 291.47 363.186C294.234 359.176 297.638 352.089 294.417 344.296C292.335 339.86 293.339 352.863 282.265 356.737C280.685 355.597 279.089 354.443 277.48 353.258C280.289 350.82 284.521 345.913 283.404 339.168C282.552 335.15 280.851 347.22 269.672 346.482C268.381 345.358 267.111 344.272 265.865 343.201C267.15 340.406 268.152 336.282 265.92 332.149C264.522 329.84 265.455 335.651 261.354 339.327C246.779 326.742 235.477 316.161 222.124 292.691C215.265 280.636 198.016 268.909 178.587 258.928C189.441 252.381 211.308 237.957 221.744 222.341C237.467 224.293 254.086 228.288 271.373 235.716C272.717 244.117 264.332 248.499 268 248.074C274.229 247.056 277.51 242.225 279.09 238.785C279.918 239.089 280.746 239.385 281.588 239.681C281.467 253.391 267.848 259.863 274.205 259.407C285.387 258.086 291.752 249.928 295.017 243.799C298.177 244.642 301.398 245.424 304.663 246.146C307.048 263.145 292.069 278.283 300.517 272.715C313.831 265.97 317.134 254.463 317.955 248.713C318.875 248.865 319.787 249.017 320.713 249.161C324.07 256.111 317.387 261.496 320.387 260.493C324.328 258.989 326.274 255.776 327.246 252.989C332.539 270.983 326.289 283.569 326.289 283.569C340.248 280.34 342.93 253.308 342.93 253.308C349.91 275.122 332.19 296.99 339.17 292.159C359.033 283.569 360.088 252.959 360.088 252.951C360.551 252.973 361.016 252.997 361.479 253.012C361.721 253.255 361.981 253.506 362.299 253.787C370.699 261.2 363.332 270.915 366.779 268.689C373.076 264.215 372.902 256.566 372.484 253.278C373.912 253.293 375.339 253.308 376.752 253.308C384.272 268.681 373 305.04 379.981 299.67C393.342 291.657 401.151 262.232 403.428 252.426C406.231 252.237 408.965 252.024 411.631 251.78L407.363 253.307C420.244 276.739 404.142 310.41 410.584 305.039C425.076 295.909 436.355 258.866 436.355 258.866C441.185 273.897 425.076 296.449 433.673 291.618C451.112 280.916 453.626 256.178 453.747 243.956C457.454 242.536 459.983 241.047 461.054 239.536C470.176 226.657 466.424 204.638 451.924 185.847ZM118.497 286.791C111.517 286.252 97.556 271.221 110.976 266.39C124.405 261.552 126.016 273.902 126.016 273.902C125.476 281.961 125.476 287.323 118.497 286.791ZM167.905 253.713C139.923 240.671 110.551 231.579 102.386 230.41C96.727 229.604 91.228 227.956 86.557 226.217C90.164 224.029 98.155 222.23 115.815 224.508C133.983 226.856 159.041 221.53 188.793 220.824C186.833 228.913 181.615 241.089 167.905 253.713ZM226.953 146.114C222.122 182.626 206.012 190.145 200.11 187.312C194.201 184.479 208.7 152.555 200.11 138.602C191.519 124.642 191.519 118.733 194.74 113.902C197.961 109.071 202.26 108.532 207.091 109.603C211.92 110.682 231.783 109.604 226.953 146.114ZM304.268 197.658C290.846 198.736 247.893 191.217 241.719 184.236C235.543 177.257 229.642 171.886 236.622 160.614C243.602 149.335 233.401 135.375 246.823 128.402C260.244 121.422 289.237 138.063 310.176 153.094C331.117 168.127 317.695 196.587 304.268 197.658ZM367.629 189.272C361.188 202.899 356.889 204.106 346.149 204.106C335.409 204.106 338.637 191.216 341.858 181.016C345.079 170.815 355.819 169.204 362.799 171.354C369.777 173.497 374.07 175.646 367.629 189.272ZM447.625 211.087C436.354 217.528 412.73 203.028 401.99 165.984C401.99 165.984 428.834 175.106 440.113 187.457C451.385 199.808 458.904 204.638 447.625 211.087Z" fill="#FFD645"/>
</svg>
